<?xml version="1.0" encoding="UTF-8"?>
<svg id="_레이어_2" data-name="레이어 2" xmlns="http://www.w3.org/2000/svg" viewBox="0 0 141.73 140.75">
  <defs>
    <style>
      .cls-1 {
        fill: #2d3c94;
        stroke-width: 0px;
      }
    </style>
  </defs>
  <g id="_레이어_1-2" data-name="레이어 1">
    <g>
      <path class="cls-1" d="M139.5,53.15c-1.62-6.29-4.1-12.23-7.27-17.72-2.36-4.08-5.11-7.9-8.21-11.42-1.97-2.23-4.07-4.33-6.3-6.3-3.51-3.1-7.34-5.85-11.42-8.21-5.49-3.18-11.43-5.65-17.72-7.27-5.66-1.46-11.6-2.23-17.72-2.23h0c-6.12,0-12.05.78-17.72,2.23-6.29,1.62-12.23,4.1-17.72,7.27-4.08,2.36-7.9,5.11-11.42,8.21-2.23,1.97-4.33,4.07-6.3,6.3-3.1,3.51-5.85,7.34-8.21,11.42-3.18,5.49-5.65,11.43-7.27,17.72C.78,58.81,0,64.75,0,70.86h0c0,6.12.78,12.06,2.23,17.72,1.62,6.29,4.1,12.23,7.27,17.72,2.36,4.08,5.11,7.9,8.21,11.42,1.97,2.23,4.07,4.33,6.3,6.3.35.31.7.62,1.06.92.78.66,1.99.11,1.99-.92h0v-53.15c0-6.31,1.34-12.3,3.74-17.72,1.26-2.84,2.81-5.53,4.62-8.02,2.71-3.72,5.98-6.99,9.7-9.7,2.49-1.81,5.17-3.36,8.02-4.62,5.42-2.4,11.41-3.74,17.72-3.74h0c6.31,0,12.3,1.34,17.72,3.74,2.84,1.26,5.53,2.81,8.02,4.62,3.72,2.71,6.99,5.98,9.7,9.7,1.81,2.49,3.36,5.17,4.62,8.02,2.4,5.42,3.74,11.41,3.74,17.72s-1.34,12.3-3.74,17.72c-1.26,2.84-2.81,5.53-4.62,8.02-1.12,1.54-2.34,3.01-3.64,4.39-.45.48-.45,1.21.01,1.68l3.63,3.63h0s13.82,13.82,13.82,13.82c.47.47,1.25.47,1.71,0,.75-.78,1.47-1.58,2.19-2.39,3.1-3.51,5.85-7.34,8.21-11.42,3.18-5.49,5.65-11.43,7.27-17.72,1.46-5.66,2.23-11.6,2.23-17.72s-.78-12.05-2.23-17.72Z"/>
      <path class="cls-1" d="M70.87,107.29s0,0,0,0,0,0,0,0c0,0,0,0,0,0h0c-.66,0-1.2-.54-1.2-1.2v-17.29c0-.66.54-1.2,1.2-1.2h0s0,0,0,0c0,0,0,0,0,0s0,0,0,0c4.62,0,8.8-1.87,11.83-4.9,3.03-3.03,4.9-7.21,4.9-11.83,0,0,0,0,0,0,0-9.24-7.49-16.73-16.73-16.73,0,0,0,0,0,0-9.24,0-16.73,7.49-16.73,16.73,0,0,0,0,0,0h0v53.15c0,9.24,7.49,16.73,16.73,16.73h0s0,0,0,0c9.24,0,16.73-7.49,16.73-16.73,0-4.3-1.63-8.2-4.3-11.17-3.06-3.41-7.49-5.56-12.43-5.56Z"/>
    </g>
  </g>
</svg>